<svg xmlns="http://www.w3.org/2000/svg" width="35" height="35" fill="none" viewBox="0 0 35 35">
  <path fill="#F4F4F4" d="M15.96 34.913A17.423 17.423 0 01.08 17.643h10.34a1.296 1.296 0 011.273 1.05 5.9 5.9 0 003.47 4.302 1.304 1.304 0 01.796 1.196v10.722z"/>
  <path fill="#462B45" d="M10.42 17.725a1.219 1.219 0 011.194.985 5.981 5.981 0 003.518 4.36 1.224 1.224 0 01.747 1.121v10.632A17.337 17.337 0 01.162 17.725H10.42zm0-.162H0A17.5 17.5 0 0016.04 35V24.191a1.388 1.388 0 00-.843-1.27 5.832 5.832 0 01-3.424-4.242 1.379 1.379 0 00-1.353-1.116z"/>
  <path fill="#462B45" d="M11.786 18.742v-.023c0-.037-.016-.073-.028-.108a.21.21 0 00-.008-.03l-.029-.08a1.453 1.453 0 00-.087-.183l-.015-.026a.969.969 0 00-.136-.196 1 1 0 00-.154-.16 1.171 1.171 0 00-.178-.137 1.41 1.41 0 00-.41-.188h-.024a.714.714 0 00-.085-.02h-.048a1.12 1.12 0 00-.232-.013H8.75v1.538a1.379 1.379 0 001.377 1.38h2.322a5.76 5.76 0 01-.663-1.754z" opacity=".85"/>
  <path fill="#462B45" d="M9.893 23.62H4.158a.162.162 0 010-.325h5.735a.162.162 0 010 .324zM11.272 25.061H4.888a.162.162 0 010-.324h6.384a.162.162 0 110 .324zM13.422 26.518h-7.57a.162.162 0 110-.324h7.57a.162.162 0 010 .324zM8.954 22.135H3.607a.162.162 0 010-.324h5.347a.162.162 0 010 .324zM14.602 27.976H7.149a.162.162 0 010-.324h7.453a.162.162 0 010 .324zM14.602 29.434H8.769a.162.162 0 110-.324h5.833a.162.162 0 010 .324z"/>
  <path fill="#462B45" d="M17.763.002A17.499 17.499 0 00.062 16.042h10.807a1.383 1.383 0 001.268-.843 5.832 5.832 0 117.664 7.664 1.383 1.383 0 00-.844 1.268v10.807a17.498 17.498 0 0016.041-17.701C34.857 7.82 27.178.143 17.763.002z"/>
</svg>
