<svg xmlns="http://www.w3.org/2000/svg" width="267" height="121" fill="none" viewBox="0 0 267 121">
  <path fill="#F4F4F4" d="M4.202 117.373v3.045c84.45.112 254.027.27 256.733 0 2.706-.271 4.51-2.143 5.074-3.045h-10.486c.541-3.247-2.255-4.51-3.721-4.735v-8.456l6.427-4.059c3.044-2.03 2.706-3.721 3.383-5.074.541-1.083-.226-6.314-.677-8.795 0-3.382-13.53-35.516-13.868-36.531-.271-.812-1.691-1.691-2.368-2.03l-20.295-8.117c-.812-.812-.789-4.849-.677-6.766 5.412-4.6 6.089-11.162 5.751-13.868h-32.472c0 3.247 2.931 9.922 4.397 12.854v6.765l-19.281 8.456c-2.976 2.165-4.848 9.697-5.412 13.192l-4.059 9.81c-1.623.81-1.804 2.818-1.691 3.72L165.21 84.9c-1.624 2.165-.677 5.187 0 6.427l4.397 7.441v12.854c-2.706.812-3.157 3.495-3.044 4.736H149.65c4.33-5.142 1.353-8.231-.676-9.133 3.247-4.33 2.706-11.05 2.029-13.868-7.306-2.165-13.643 3.156-15.898 6.088-3.788-6.494-12.177-6.765-15.897-6.088-1.083 3.788 1.353 10.147 2.706 12.853-2.977 1.082-3.496 3.157-3.383 4.059l3.383 6.089h-15.56c-.271-2.165-3.27-3.383-4.735-3.721v-7.78c2.706-.271 7.892-1.466 10.147-2.029 9.809-3.045 6.089-9.81 5.75-11.501-.27-1.353-3.495-5.976-5.073-8.118-1.353-2.165-14.32-14.432-20.634-20.295-.812-5.412-6.877-6.54-9.81-6.427l-3.043-1.353c8.659.541 11.5-5.412 11.838-8.456.542-5.142-2.931-8.457-4.735-9.471 2.368-4.736 2.03-7.78 2.368-10.148.27-1.894-.79-6.201-1.353-8.118H45.807c-.338 1.24-1.015 4.736-1.015 8.795 0 5.073 4.736 12.177 6.765 13.53 2.03 1.353 2.03 2.03 2.706 5.412.541 2.706-1.578 4.284-2.706 4.735-1.353.226-5.344.677-10.486.677-5.141 0-8.456 3.608-9.47 5.412C23.481 62.577 6.57 79.15 3.186 82.533c-3.382 3.383-3.382 6.089-3.044 9.81.27 2.976 3.946 5.75 5.75 6.765l14.883 7.103v6.427c-3.247 0-3.608 3.157-3.382 4.735H4.202z"/>
  <path fill="#3CBA92" d="M131.624 100.111c3.963 4.253 4.168 10.504 4.168 10.504s-6.221-.645-10.184-4.898c-3.963-4.253-4.168-10.503-4.168-10.503s6.221.644 10.184 4.897z"/>
  <path fill="#3CBA92" d="M144.101 106.749c-4.253 3.963-10.504 4.168-10.504 4.168s.645-6.221 4.898-10.184c4.252-3.963 10.503-4.168 10.503-4.168s-.644 6.221-4.897 10.184z"/>
  <path fill="#3F3D56" d="M143.044 119.371h-15.642a1.604 1.604 0 01-1.439-.9l-3.406-7a1.607 1.607 0 01.664-2.1c.237-.131.504-.2.775-.2h22.454a1.603 1.603 0 011.356.751 1.595 1.595 0 01.082 1.549l-3.405 7a1.602 1.602 0 01-1.439.9z"/>
  <path fill="#FFB8B8" d="M213.292 33.996c7.193 0 13.024-5.832 13.024-13.025 0-7.193-5.831-13.024-13.024-13.024-7.193 0-13.025 5.831-13.025 13.024 0 7.193 5.832 13.025 13.025 13.025z"/>
  <path fill="#FFB8B8" d="M203.571 27.483s2.454 18.499-1.322 20.575c-3.775 2.076 22.463 2.265 22.463 2.265s-5.852-16.044-3.209-20.952l-17.932-1.888z"/>
  <path fill="#FF6584" d="M243.87 50.417l-2.182 9.936-4.614 21.021-.138 1.152-1.592 13.328-1.059 8.854-.71 5.947c-4.318 2.219-7.448 3.751-7.448 3.751s-.269-1.349-.703-3.076c-3.031.908-8.638 2.416-13.39 2.717 1.73 1.929 2.526 3.74 1.447 5.078-3.255 4.031-16.695-4.414-21.395-7.563-.11.754-.151 1.516-.124 2.278l-3.598-2.767.356-6.365.601-10.77.754-13.508a14.233 14.233 0 01-.597-1.776c-1.101-3.918-2.438-11.74-3.464-18.301a642.086 642.086 0 01-1.576-10.69l-.027-.189 19.913-8.799c1.415 3.282 8.023 4.269 8.023 4.269 5.475-.377 9.767-3.264 9.767-3.264l21.756 8.737z"/>
  <path fill="#FFB8B8" d="M227.638 110.632s-.843.289-2.214.698c-3.031.909-8.638 2.416-13.39 2.717-4.091.262-7.549-.369-8.181-3.038-.271-1.147.113-2.091.951-2.867 2.501-2.319 9.033-3.149 14.214-3.434a94.294 94.294 0 017.109-.117l.03.117 1.481 5.924z"/>
  <path fill="#2F2E41" d="M202.457 8.651l-2.436-.974s5.092-5.606 12.177-5.119L210.205.365s4.871-1.95 9.298 3.168c2.328 2.69 5.021 5.853 6.7 9.416h2.608l-1.089 2.397 3.81 2.396-3.91-.43c.233 1.312.268 2.652.106 3.975a5.143 5.143 0 01-1.884 3.365s-3.02-6.251-3.02-7.226v2.437s-2.435-2.194-2.435-3.656l-1.329 1.706-.664-2.68-8.191 2.68 1.328-2.193-5.091.73 1.992-2.68s-5.756 3.168-5.977 5.85c-.222 2.68-1.906 5.22-1.906 5.22s-4.514-12.533 1.906-16.189z"/>
  <path fill="#FF6584" d="M258.027 96.096c-1.327 1.438-4.614 3.605-8.599 5.95-1.482.871-3.06 1.769-4.67 2.662a414.587 414.587 0 01-11.183 5.947c-4.318 2.219-7.448 3.751-7.448 3.751s-.269-1.349-.703-3.076c-.581-2.311-1.456-5.299-2.368-6.622a3.718 3.718 0 00-.096-.131c-.266-.349-.533-.553-.797-.553l13.181-8.17 5.696-3.532-4.104-9.796-5.147-12.288 3.107-9.885 3.122-9.936h5.852a384.227 384.227 0 005.558 12.878c5.097 12.398 11.452 29.71 8.599 32.801z"/>
  <path fill="#FFB8B8" d="M213.481 119.125c-3.255 4.031-16.695-4.414-21.395-7.563-1.024-.686-1.633-1.119-1.633-1.119l4.3-5.735 1.362-1.816a95.646 95.646 0 003.218 1.816c1.553.912 3.503 2.104 5.471 3.434 2.715 1.836 5.461 3.932 7.23 5.905 1.73 1.929 2.526 3.74 1.447 5.078z"/>
  <path fill="#FF6584" d="M199.135 104.591a8.411 8.411 0 00-1.435.117c-4.072.699-5.273 4.385-5.614 6.854-.11.754-.151 1.516-.124 2.278l-3.598-2.767-1.31-1.008c-3.155-1.1-5.965-3.053-8.403-5.357a42.28 42.28 0 01-5.658-6.711 59.21 59.21 0 01-4.379-7.51 5.525 5.525 0 01-.076-4.685l4.455-9.927 6.51-14.51c.048-.345.101-.682.158-1.012 1.291-7.404 4.75-10.69 4.75-10.69h2.643l1.767 10.69 2.197 13.282-1.54 5.02-3.556 11.591 3.399 3.691 9.814 10.654z"/>
  <path fill="#fff" d="M202.126 73.645l2.259 2.636c.839-.16 1.715-.348 2.618-.56l-.649-2.076 1.587 1.851c9.564-2.352 21.418-6.925 21.418-6.925s-12.798.938-22.354-1.15c-4.227-.923-8.577 1.173-10.312 5.137-1.009 2.305-.85 4.301 2.726 4.301a23.61 23.61 0 003.605-.339l-.898-2.875z"/>
  <path fill="#3F3D56" d="M253.626 116.964v1.075a2.38 2.38 0 01-1.202 2.068 2.38 2.38 0 01-1.177.311h-79.09a2.38 2.38 0 01-2.379-2.379v-1.075a2.364 2.364 0 01.697-1.682 2.38 2.38 0 011.682-.697h4.559v-.501c0-.013.002-.026.007-.038a.087.087 0 01.022-.032.102.102 0 01.032-.022.099.099 0 01.038-.007h2.378c.013 0 .026.002.038.007a.099.099 0 01.054.054.1.1 0 01.008.038v.501h1.486v-.501c0-.013.002-.026.007-.038a.087.087 0 01.022-.032.102.102 0 01.032-.022.099.099 0 01.038-.007h2.378c.013 0 .026.002.038.007a.099.099 0 01.054.054.1.1 0 01.008.038v.501h1.487v-.501a.1.1 0 01.008-.038.099.099 0 01.054-.054.099.099 0 01.038-.007h2.378c.013 0 .026.002.038.007a.102.102 0 01.032.022c.01.009.017.02.022.032a.099.099 0 01.007.038v.501h1.486v-.501a.1.1 0 01.008-.038.099.099 0 01.054-.054.099.099 0 01.038-.007h2.378c.013 0 .026.002.038.007a.102.102 0 01.032.022c.01.009.017.02.022.032a.099.099 0 01.007.038v.501h1.486v-.501a.1.1 0 01.008-.038.099.099 0 01.054-.054.099.099 0 01.038-.007h2.378c.013 0 .026.002.038.007a.102.102 0 01.032.022c.01.009.017.02.022.032a.099.099 0 01.007.038v.501h1.488v-.501a.1.1 0 01.008-.038.099.099 0 01.053-.054.099.099 0 01.038-.007h2.379c.013 0 .026.002.038.007a.102.102 0 01.032.022c.009.009.017.02.022.032a.099.099 0 01.007.038v.501h1.486v-.501a.1.1 0 01.008-.038.099.099 0 01.053-.054.099.099 0 01.038-.007h18.633c.013 0 .026.002.038.007a.102.102 0 01.061.092v.501h1.488v-.501c0-.013.002-.026.007-.038a.102.102 0 01.022-.032.102.102 0 01.032-.022.099.099 0 01.038-.007h2.379c.026 0 .051.011.069.029a.1.1 0 01.03.07v.501h1.486v-.501c0-.013.002-.026.007-.038a.102.102 0 01.022-.032.102.102 0 01.032-.022.099.099 0 01.038-.007h2.379c.013 0 .026.002.038.007a.102.102 0 01.061.092v.501h1.486v-.501c0-.013.002-.026.007-.038a.102.102 0 01.022-.032.102.102 0 01.032-.022.099.099 0 01.038-.007h2.379c.013 0 .026.002.038.007a.102.102 0 01.061.092v.501h1.488v-.501c0-.013.002-.026.007-.038a.087.087 0 01.022-.032.102.102 0 01.032-.022.099.099 0 01.038-.007h2.378a.099.099 0 01.098.099v.501h1.488v-.501c0-.013.002-.026.007-.038a.087.087 0 01.022-.032.102.102 0 01.032-.022.099.099 0 01.038-.007h2.378c.013 0 .026.002.038.007a.099.099 0 01.054.054.1.1 0 01.008.038v.501h1.486v-.501c0-.013.002-.026.007-.038a.087.087 0 01.022-.032.102.102 0 01.032-.022.099.099 0 01.038-.007h2.378c.013 0 .026.002.038.007a.099.099 0 01.054.054.1.1 0 01.008.038v.501h6.937a2.383 2.383 0 012.198 1.469c.119.288.181.597.181.91z"/>
  <path fill="#3F3D56" d="M247.257 71.688h-29.479v-.607h-13.367v.607H174.81a1.994 1.994 0 00-1.994 1.994v40.367a1.994 1.994 0 001.994 1.994h72.447a1.996 1.996 0 001.995-1.994V73.682a1.998 1.998 0 00-1.231-1.842 1.999 1.999 0 00-.764-.152z"/>
  <path stroke="#D0CDE1" stroke-miterlimit="10" stroke-width="2" d="M211.092 90.209a4.428 4.428 0 100-8.857 4.428 4.428 0 000 8.857z"/>
  <path fill="#D0CDE1" d="M209.675 91.803a4.428 4.428 0 100-8.856 4.428 4.428 0 000 8.856z"/>
  <path fill="#2F2E41" d="M79.663 52.129a6.446 6.446 0 100-12.893 6.446 6.446 0 000 12.893z"/>
  <path fill="#2F2E41" d="M81.459 39.413a6.448 6.448 0 015.675 9.506 6.446 6.446 0 00-6.604-10.274 6.446 6.446 0 00-4.104 3.193 6.431 6.431 0 015.033-2.425z"/>
  <path fill="#2F2E41" d="M67.617 45.669c10.458 0 18.936-8.478 18.936-18.936S78.075 7.797 67.617 7.797s-18.935 8.478-18.935 18.936 8.477 18.936 18.935 18.936z"/>
  <path fill="#2F2E41" d="M52.756 14.984A18.932 18.932 0 0178.999 13c-.155-.148-.308-.296-.47-.439a18.936 18.936 0 00-25.161 28.304c.16.143.326.278.49.415a18.933 18.933 0 01-1.102-26.295z"/>
  <path fill="#A0616A" d="M67.457 45.508c6.736 0 12.196-5.46 12.196-12.196 0-6.735-5.46-12.196-12.196-12.196S55.26 26.576 55.26 33.312s5.46 12.196 12.196 12.196z"/>
  <path fill="#A0616A" d="M58.791 37.164s1.605 14.763-.962 16.368c-2.568 1.605 14.763 3.851 14.763 3.851s-2.567-16.047 3.851-20.22H58.792z"/>
  <path fill="#FFDA44" d="M74.197 50.964s4.779-2.231-2.104-1.437c-6.883.795-12.82-2.254-12.82-2.254s-2.086-2.086-2.407.16c-.321 2.248.963 6.42-6.098 7.062-7.061.642-13.48-1.284-16.047 3.53-2.568 4.814-1.284 25.676-1.284 25.676s4.814 17.331 8.665 19.898c3.852 2.568 37.55-.963 37.55-.963l9.63-17.33v-20.22s-1.285-7.061-10.271-5.135c0 0-5.777-1.284-5.456-4.173.32-2.888.642-4.814.642-4.814z"/>
  <path fill="#2F2E41" d="M43.376 115.864c.198-.864.331-1.353.331-1.353l-.102-.703-1.058-7.18-.444-3.029c3.85-1.605 4.813-8.987 4.813-8.987l.146-.087.657-.393v-.002l2.359-1.415.048-.028.953.634 1.936 1.291A22.764 22.764 0 0070.94 98.72a19.728 19.728 0 004.22-1.218l4.668-1.557.145-.048.144.021 2.738.415.05.009.226.033-.634 4.384-.92 6.371c2.43 1.286 4.588 3.701 6.476 6.679a38.53 38.53 0 011.215 2.056 50.313 50.313 0 011.628 3.215c.179.384.356.772.528 1.162H42.526a116.911 116.911 0 01.196-1.162 68.14 68.14 0 01.654-3.215z"/>
  <path fill="#2F2E41" d="M41.46 54.174s3.53 6.419 2.247 14.442c-1.284 8.024 3.851 27.922 3.851 27.922l3.852-.962s-2.568-16.69-1.926-20.54c.642-3.852.642-18.937-2.568-20.862-3.209-1.926-5.456 0-5.456 0zM78.785 60.844l1.35 35.534 2.567 1.605s3.69-38.995 1.765-38.995h-3.918a1.767 1.767 0 00-1.764 1.856z"/>
  <path fill="#fff" d="M49.324 95.736a1.605 1.605 0 100-3.21 1.605 1.605 0 000 3.21zM81.418 97.34a1.605 1.605 0 100-3.209 1.605 1.605 0 000 3.21z"/>
  <path fill="#2F2E41" d="M57.026 18.067v12.196h2.825l3.594-3.851-.481 3.851h12.485l-.77-3.851 1.54 3.851h1.99V18.067H57.026z"/>
  <path fill="#A0616A" d="M55.1 32.51c.532 0 .963-.79.963-1.765 0-.975-.43-1.765-.962-1.765s-.963.79-.963 1.765c0 .975.43 1.765.963 1.765zM79.813 32.51c.532 0 .963-.79.963-1.765 0-.975-.43-1.765-.963-1.765-.531 0-.963.79-.963 1.765 0 .975.432 1.765.963 1.765zM86.393 95.576s-14.603-2.728-15.566 2.086c-.963 4.814 16.208 2.728 16.208 2.728l-.642-4.814z"/>
  <path fill="#FFDA44" d="M86.072 62.518s34.983 27.922 28.564 34.662c-6.419 6.74-30.81 4.814-30.81 4.814l1.604-8.023 14.121-1.605-7.06-7.06-6.42.641V62.518z"/>
  <path fill="#A0616A" d="M34.4 109.055l4.493 3.531s3.21 9.949 8.023 7.06c4.815-2.888-4.493-13.158-4.493-13.158l-5.456-1.926-2.567 4.493z"/>
  <path fill="#FFDA44" d="M38.893 57.383l-4.481 1.349S3.268 81.775 1.984 88.194c-1.284 6.419 6.098 9.95 6.098 9.95l27.922 13.158 2.889-7.703-13.159-6.74s.963-1.925-2.888-2.246c-3.852-.321-4.494-4.493-4.494-4.493s7.703-11.876 11.875-9.308c4.173 2.568 5.456 4.493 5.456 4.493l3.21-27.922z"/>
  <path fill="#3F3D56" d="M102.807 116.964v1.075a2.38 2.38 0 01-1.202 2.068 2.38 2.38 0 01-1.177.311h-79.09a2.379 2.379 0 01-2.379-2.379v-1.075a2.371 2.371 0 01.697-1.682 2.384 2.384 0 011.682-.697h4.559v-.501a.099.099 0 01.099-.099h2.378c.014 0 .026.002.038.007a.104.104 0 01.054.054.097.097 0 01.008.038v.501h1.486v-.501a.1.1 0 01.029-.07.105.105 0 01.032-.022.099.099 0 01.038-.007h2.378c.014 0 .026.002.038.007a.104.104 0 01.054.054.097.097 0 01.008.038v.501h1.487v-.501a.099.099 0 01.1-.099h2.378c.013 0 .026.002.038.007a.104.104 0 01.054.054.097.097 0 01.007.038v.501h1.486v-.501a.099.099 0 01.1-.099h2.378c.013 0 .026.002.038.007a.104.104 0 01.054.054.097.097 0 01.007.038v.501h1.486v-.501a.1.1 0 01.03-.07.105.105 0 01.032-.022.099.099 0 01.038-.007h2.378c.013 0 .026.002.038.007a.104.104 0 01.054.054.097.097 0 01.007.038v.501h1.488v-.501a.099.099 0 01.1-.099h2.378c.013 0 .026.002.038.007a.104.104 0 01.054.054.099.099 0 01.007.038v.501h1.486v-.501a.099.099 0 01.1-.099H69.01c.013 0 .026.002.038.007a.104.104 0 01.053.054.099.099 0 01.008.038v.501h1.488v-.501a.097.097 0 01.029-.07.104.104 0 01.032-.022.098.098 0 01.038-.007h2.379c.026 0 .05.011.07.029a.102.102 0 01.029.07v.501h1.486v-.501a.099.099 0 01.099-.099h2.379c.013 0 .025.002.038.007a.105.105 0 01.053.054.1.1 0 01.008.038v.501h1.486v-.501a.097.097 0 01.029-.07.104.104 0 01.032-.022.098.098 0 01.038-.007h2.379c.013 0 .026.002.038.007a.105.105 0 01.053.054.099.099 0 01.008.038v.501h1.487v-.501a.1.1 0 01.1-.099h2.378a.1.1 0 01.07.029.1.1 0 01.028.07v.501h1.488v-.501a.097.097 0 01.029-.07.104.104 0 01.032-.022.098.098 0 01.038-.007h2.378c.013 0 .026.002.038.007a.106.106 0 01.054.054.1.1 0 01.008.038v.501h1.486v-.501a.097.097 0 01.029-.07.104.104 0 01.032-.022.098.098 0 01.038-.007h2.378c.013 0 .026.002.038.007a.105.105 0 01.054.054.099.099 0 01.008.038v.501h6.937c.313 0 .622.062.911.181a2.39 2.39 0 011.287 1.288c.119.288.181.597.181.91z"/>
  <path fill="#3F3D56" d="M96.438 71.687h-29.48v-.607H53.593v.607H23.99a1.994 1.994 0 00-1.994 1.995v40.366a1.994 1.994 0 001.994 1.994h72.447a1.994 1.994 0 001.994-1.994V73.681a1.994 1.994 0 00-1.994-1.994z"/>
  <path stroke="#D0CDE1" stroke-miterlimit="10" stroke-width="2" d="M60.272 90.208a4.428 4.428 0 100-8.856 4.428 4.428 0 000 8.856z"/>
  <path fill="#D0CDE1" d="M58.855 91.802a4.428 4.428 0 100-8.856 4.428 4.428 0 000 8.856z"/>
  <path fill="#3F3D56" d="M267 119.096H5.1v.551H267v-.551z"/>
</svg>
